<svg xmlns="http://www.w3.org/2000/svg" viewBox="0 0 6514.0000 1400.0000"><g transform="translate(0 1050.0000) scale(1.0000 -1.0000)"><path d="M743.0 702 619.0 0H448.0L499.0 291H233.0L182.0 0H11.0L135.0 702H306.0L257.0 426H523.0L572.0 702Z M949.0 140H1251.0L1226.0 0H730.0L753.0 130L1129.0 562H829.0L854.0 702H1350.0L1327.0 572Z M1693.0 710Q1818.0 710 1907.0 644.0Q1996.0 578 2026.0 464H1838.0Q1817.0 508 1778.5 531.0Q1740.0 554 1691.0 554Q1612.0 554 1563.0 499.0Q1514.0 444 1514.0 352Q1514.0 260 1563.0 205.0Q1612.0 150 1691.0 150Q1740.0 150 1778.5 173.0Q1817.0 196 1838.0 240H2026.0Q1996.0 126 1907.0 60.5Q1818.0 -5 1693.0 -5Q1591.0 -5 1510.5 40.5Q1430.0 86 1385.0 167.0Q1340.0 248 1340.0 352Q1340.0 456 1385.0 537.5Q1430.0 619 1510.5 664.5Q1591.0 710 1693.0 710Z M2477.0 564V383H2430.0Q2366.0 383 2334.0 355.5Q2302.0 328 2302.0 259V0H2131.0V558H2302.0V465Q2332.0 511 2377.0 537.5Q2422.0 564 2477.0 564Z M3129.0 558 2779.0 -265H2595.0L2723.0 19L2496.0 558H2687.0L2816.0 209L2944.0 558Z M3534.0 566Q3603.0 566 3659.0 531.0Q3715.0 496 3747.5 431.0Q3780.0 366 3780.0 280Q3780.0 194 3747.5 128.5Q3715.0 63 3659.0 27.5Q3603.0 -8 3534.0 -8Q3476.0 -8 3431.5 16.0Q3387.0 40 3362.0 78V-266H3191.0V558H3362.0V479Q3387.0 518 3431.0 542.0Q3475.0 566 3534.0 566ZM3483.0 417Q3432.0 417 3396.5 380.0Q3361.0 343 3361.0 279Q3361.0 215 3396.5 178.0Q3432.0 141 3483.0 141Q3534.0 141 3570.0 178.5Q3606.0 216 3606.0 280Q3606.0 344 3570.5 380.5Q3535.0 417 3483.0 417Z M4091.0 564Q4144.0 564 4186.0 545.5Q4228.0 527 4254.0 494V558H4425.0V-266H4254.0V70Q4225.0 35 4183.5 14.0Q4142.0 -7 4089.0 -7Q4021.0 -7 3963.0 29.0Q3905.0 65 3870.5 130.0Q3836.0 195 3836.0 278Q3836.0 361 3870.5 426.0Q3905.0 491 3963.5 527.5Q4022.0 564 4091.0 564ZM4132.0 416Q4102.0 416 4074.0 400.5Q4046.0 385 4028.0 354.0Q4010.0 323 4010.0 278Q4010.0 233 4028.0 202.5Q4046.0 172 4074.0 156.5Q4102.0 141 4132.0 141Q4162.0 141 4190.5 156.5Q4219.0 172 4236.5 203.0Q4254.0 234 4254.0 279Q4254.0 324 4236.5 354.5Q4219.0 385 4191.0 400.5Q4163.0 416 4132.0 416Z M5100.0 558V0H4929.0V76Q4903.0 39 4858.5 16.5Q4814.0 -6 4760.0 -6Q4696.0 -6 4647.0 22.5Q4598.0 51 4571.0 105.0Q4544.0 159 4544.0 232V558H4714.0V255Q4714.0 199 4743.0 168.0Q4772.0 137 4821.0 137Q4871.0 137 4900.0 168.0Q4929.0 199 4929.0 255V558Z M5435.0 566Q5494.0 566 5538.5 542.0Q5583.0 518 5607.0 479V558H5778.0V0H5607.0V79Q5582.0 40 5537.5 16.0Q5493.0 -8 5434.0 -8Q5366.0 -8 5310.0 27.5Q5254.0 63 5221.5 128.5Q5189.0 194 5189.0 280Q5189.0 366 5221.5 431.0Q5254.0 496 5310.0 531.0Q5366.0 566 5435.0 566ZM5485.0 417Q5434.0 417 5398.5 380.5Q5363.0 344 5363.0 280Q5363.0 216 5398.5 178.5Q5434.0 141 5485.0 141Q5536.0 141 5571.5 178.0Q5607.0 215 5607.0 279Q5607.0 343 5571.5 380.0Q5536.0 417 5485.0 417Z M6457.0 326V0H6287.0V303Q6287.0 359 6258.0 390.0Q6229.0 421 6180.0 421Q6131.0 421 6102.0 390.0Q6073.0 359 6073.0 303V0H5902.0V558H6073.0V484Q6099.0 521 6143.0 542.5Q6187.0 564 6242.0 564Q6340.0 564 6398.5 500.5Q6457.0 437 6457.0 326Z" fill="currentColor"/></g></svg>
